<svg width="24" height="39" viewBox="0 0 24 39" fill="none" xmlns="http://www.w3.org/2000/svg">
<path d="M2 9.90172C2 9.03642 2.44772 8.33496 3 8.33496H21C21.5523 8.33496 22 9.03642 22 9.90172C22 10.767 21.5523 11.4685 21 11.4685H3C2.44772 11.4685 2 10.767 2 9.90172Z" fill="white"/>
<path d="M2 19.3528C2 18.4875 2.44772 17.786 3 17.786H21C21.5523 17.786 22 18.4875 22 19.3528C22 20.2181 21.5523 20.9195 21 20.9195H3C2.44772 20.9195 2 20.2181 2 19.3528Z" fill="white"/>
<path d="M3 27.2371C2.44772 27.2371 2 27.9386 2 28.8039C2 29.6691 2.44772 30.3706 3 30.3706H21C21.5523 30.3706 22 29.6691 22 28.8039C22 27.9386 21.5523 27.2371 21 27.2371H3Z" fill="white"/>
</svg>
